<svg xmlns="http://www.w3.org/2000/svg" xml:space="preserve" width="800" height="800" fill="#9bbc0f" viewBox="0 0 576.9 576.9"><defs><filter id="b" width="1.3" height="1.3" x="-.1" y="-.1" style="color-interpolation-filters:sRGB"><feFlood flood-color="#524B48" flood-opacity=".5" result="flood"/><feGaussianBlur in="SourceGraphic" result="blur" stdDeviation="8.3"/><feOffset dx="1" dy="3" in="blur" result="offset"/><feComposite in="offset" in2="flood" operator="in" result="comp1"/><feComposite in="SourceGraphic" in2="comp1" result="comp2"/></filter><filter id="a" width="1.2" height="1.3" x="-.1" y="-.1" style="color-interpolation-filters:sRGB"><feFlood flood-color="#524B48" flood-opacity=".5" result="flood"/><feGaussianBlur in="SourceGraphic" result="blur" stdDeviation="8.4"/><feOffset dx="1" dy="3" in="blur" result="offset"/><feComposite in="offset" in2="flood" operator="in" result="comp1"/><feComposite in="SourceGraphic" in2="comp1" result="comp2"/></filter></defs><path d="M192.2 55.8h196.4a132.4 132.4 45 0 1 132.5 132.5v196.3a136.5 136.5 135 0 1-136.5 136.5H192.3A136.5 136.5 45 0 1 55.8 384.6V192.2A136.4 136.4 135 0 1 192.2 55.8Z" style="fill:#c4bebb;fill-opacity:1;stroke:none;stroke-width:17.5854;stroke-linecap:round;stroke-dasharray:none;stroke-opacity:1;paint-order:stroke fill markers"/><path d="M337.8 235.7c0 10-7.7 18-17.7 18h-66.3V320a18.1 18.1 0 0 1-18.1 17.6h-86.5a17.9 17.9 0 0 1-17.7-17.6v-66.4H65.2a18 18 0 0 1-18.1-18V149c0-10 8.1-17.7 18-17.7h66.4V64.7a18.1 18.1 0 0 1 17.7-17.6h86.7A18.1 18.1 0 0 1 254 64.7v66.6h66.1c10 0 18.1 7.7 18.1 17.7v86.7z" style="fill:#272929;fill-opacity:1;stroke:#656a6a;stroke-width:30.59228587;stroke-linejoin:round;stroke-dasharray:none;stroke-opacity:1;paint-order:normal;filter:url(#a)"/><path d="M457.3 384a75 75 0 1 1-8.7-149.5 75 75 0 0 1 8.7 149.5zM319.5 527.8a75 75 0 1 1 0-149.8 75 75 0 0 1 0 149.8z" style="fill:#9a2257;fill-opacity:1;stroke:#d3397d;stroke-width:34.5453;stroke-linejoin:round;stroke-dasharray:none;stroke-opacity:1;paint-order:normal;filter:url(#b)"/></svg>